<?xml version="1.0" standalone="no"?>
<!DOCTYPE svg PUBLIC "-//W3C//DTD SVG 20010904//EN"
 "http://www.w3.org/TR/2001/REC-SVG-20010904/DTD/svg10.dtd">
<svg version="1.0" xmlns="http://www.w3.org/2000/svg"
 width="30.000000pt" height="30.000000pt" viewBox="0 0 30.000000 30.000000"
 preserveAspectRatio="xMidYMid meet">

<g transform="translate(0.000000,30.000000) scale(0.100000,-0.100000)"
fill="#000000" stroke="none">
<path d="M44 256 c-28 -28 -34 -42 -34 -76 0 -52 25 -95 66 -115 39 -18 59
-18 99 -1 29 13 32 12 67 -22 49 -46 62 -33 16 16 -34 35 -35 38 -22 67 17 40
17 60 -1 99 -20 41 -63 66 -115 66 -34 0 -48 -6 -76 -34z m147 -15 c39 -39 41
-100 4 -136 -53 -54 -166 -12 -165 62 1 89 100 135 161 74z"/>
</g>
</svg>
